<?xml version="1.0" encoding="UTF-8"?>
<svg id="Layer_2" data-name="Layer 2" xmlns="http://www.w3.org/2000/svg" viewBox="0 0 277.23 79.33">
  <defs>
    <style>
      .cls-1 {
        fill: #729900;
      }

      .cls-1, .cls-2 {
        stroke-width: 0px;
      }

      .cls-2 {
        fill: #7f7f7f;
      }
    </style>
  </defs>
  <g id="Layer_2-2" data-name="Layer 2">
    <g>
      <path class="cls-1" d="m40.11,39.22c-2.25-2.25-5.89-2.25-8.13,0l-20.48,20.48v-18.99c0-16.1,13.1-29.2,29.2-29.2h32.94c3.18,0,5.75-2.57,5.75-5.75s-2.57-5.75-5.75-5.75h-32.94C18.26,0,0,18.26,0,40.71v32.87c0,2.33,1.4,4.42,3.55,5.31.71.29,1.46.44,2.2.44,1.5,0,2.97-.58,4.07-1.68l30.3-30.3c2.25-2.25,2.25-5.89,0-8.13Z"/>
      <path class="cls-2" d="m71.7,48.12c-2.88-1.34-6.3-.09-7.64,2.79-.83,1.79-1.85,3.51-3.04,5.1-5.58,7.51-14.13,11.82-23.47,11.82-3.18,0-5.75,2.57-5.75,5.75s2.57,5.75,5.75,5.75c12.83,0,25.05-6.16,32.7-16.46,1.65-2.22,3.07-4.61,4.23-7.11,1.34-2.88.09-6.3-2.79-7.64Z"/>
      <path class="cls-1" d="m66.86,31.57v6.57h6.57c3.86,0,6.99-3.13,6.99-6.99v-6.57h-6.57c-3.86,0-6.99,3.13-6.99,6.99Z"/>
      <path class="cls-2" d="m151.17,23.7c-13.73,0-24.9,11.17-24.9,24.9v24.98c0,3.18,2.57,5.75,5.75,5.75s5.75-2.57,5.75-5.75v-24.98c0-7.39,6.01-13.4,13.4-13.4s13.4,6.01,13.4,13.4v24.98c0,3.18,2.57,5.75,5.75,5.75s5.75-2.57,5.75-5.75v-24.98c0-13.73-11.17-24.9-24.9-24.9Z"/>
      <path class="cls-2" d="m232.97,23.7c-3.18,0-5.75,2.57-5.75,5.75v24.98c0,7.39-6.01,13.4-13.4,13.4s-13.4-6.01-13.4-13.4v-24.98c0-3.18-2.57-5.75-5.75-5.75s-5.75,2.57-5.75,5.75v24.98c0,13.73,11.17,24.9,24.9,24.9s24.9-11.17,24.9-24.9v-24.98c0-3.18-2.57-5.75-5.75-5.75Z"/>
      <path class="cls-2" d="m111.76,37.08c3.18,0,5.75-2.57,5.75-5.75s-2.57-5.75-5.75-5.75h-8.4v-5.38c0-3.18-2.57-5.75-5.75-5.75s-5.75,2.57-5.75,5.75v43.18c0,8.58,6.98,15.56,15.56,15.56h4.34c3.18,0,5.75-2.57,5.75-5.75s-2.57-5.75-5.75-5.75h-4.34c-2.24,0-4.06-1.82-4.06-4.06v-26.3h8.4Z"/>
      <path class="cls-2" d="m271.48,66.91h-4.34c-2.24,0-4.06-1.82-4.06-4.06v-26.3h8.4c3.18,0,5.75-2.57,5.75-5.75s-2.57-5.75-5.75-5.75h-8.4v-5.38c0-3.18-2.57-5.75-5.75-5.75s-5.75,2.57-5.75,5.75v43.18c0,8.58,6.98,15.56,15.56,15.56h4.34c3.18,0,5.75-2.57,5.75-5.75s-2.57-5.75-5.75-5.75Z"/>
    </g>
  </g>
</svg>